<svg version="1" xmlns="http://www.w3.org/2000/svg" width="346.667" height="346.667" viewBox="0 0 260.000000 260.000000"><path d="M118 .6c-1.4.2-5.9.9-10 1.5-16.7 2.4-38 11.4-53.5 22.4C27.5 43.7 7.8 75 1.9 108c-1.7 9.7-1.7 34.3 0 44 9.5 53.6 52.5 96.6 106.1 106.1 9.7 1.7 34.3 1.7 44 0 53.6-9.5 96.6-52.5 106.1-106.1 1.7-9.7 1.7-34.3 0-44C248.8 55.4 207.2 12.9 155 2.5 147.6 1 122.8-.3 118 .6zm30.6 55.3c16.1 3.3 24.2 9 30.1 20.8l3.8 7.7v13c0 11.5-.3 13.8-2.4 19-3 7.6-9.9 14.9-17.4 18.8-8.6 4.3-18.3 5.8-37.3 5.8H109v59H90V54h24.8c20.2 0 26.4.4 33.8 1.9z"/><path d="M109 97.7v27.8l18.2-.5c20.8-.6 23.6-1.5 30.1-9 4.6-5.4 6.1-11.1 5.5-21-.6-9.7-3.9-15.9-10.8-20.2-6-3.7-12.6-4.8-29.1-4.8H109v27.7z"/></svg>