<?xml version="1.0" standalone="no"?>
<!DOCTYPE svg PUBLIC "-//W3C//DTD SVG 20010904//EN"
 "http://www.w3.org/TR/2001/REC-SVG-20010904/DTD/svg10.dtd">
<svg version="1.0" xmlns="http://www.w3.org/2000/svg"
 width="300.000000pt" height="300.000000pt" viewBox="0 0 300.000000 300.000000"
 preserveAspectRatio="xMidYMid meet">
<metadata>
Created by potrace 1.11, written by Peter Selinger 2001-2013
</metadata>
<g transform="translate(0.000000,300.000000) scale(0.100000,-0.100000)"
fill="#000000" stroke="none">
<path d="M1375 2990 c-517 -44 -977 -357 -1212 -823 -58 -117 -117 -296 -138
-422 -23 -132 -23 -358 0 -490 51 -302 201 -591 420 -810 171 -172 360 -288
594 -365 158 -53 285 -72 461 -72 176 0 303 19 461 72 387 128 694 392 876
753 58 117 117 296 138 422 23 132 23 358 0 490 -79 468 -382 878 -808 1092
-238 119 -529 175 -792 153z m88 -97 c-7 -2 -21 -2 -30 0 -10 3 -4 5 12 5 17
0 24 -2 18 -5z m110 0 c-7 -2 -21 -2 -30 0 -10 3 -4 5 12 5 17 0 24 -2 18 -5z
m88 -558 c283 -42 437 -171 485 -405 39 -194 -10 -392 -129 -517 -133 -141
-333 -203 -654 -203 l-153 0 0 -360 0 -360 -120 0 -120 0 0 930 0 930 298 0
c207 0 326 -4 393 -15z m-1554 -792 c-3 -10 -5 -4 -5 12 0 17 2 24 5 18 2 -7
2 -21 0 -30z m2790 0 c-3 -10 -5 -4 -5 12 0 17 2 24 5 18 2 -7 2 -21 0 -30z
m-2790 -110 c-3 -10 -5 -4 -5 12 0 17 2 24 5 18 2 -7 2 -21 0 -30z m2790 0
c-3 -10 -5 -4 -5 12 0 17 2 24 5 18 2 -7 2 -21 0 -30z m-1434 -1330 c-7 -2
-21 -2 -30 0 -10 3 -4 5 12 5 17 0 24 -2 18 -5z m110 0 c-7 -2 -21 -2 -30 0
-10 3 -4 5 12 5 17 0 24 -2 18 -5z"/>
<path d="M1210 1779 l0 -372 183 6 c238 7 339 33 425 111 73 67 112 206 92
333 -35 216 -176 293 -535 293 l-165 0 0 -371z"/>
</g>
</svg>
